<?xml version="1.0" standalone="no"?>
<!DOCTYPE svg PUBLIC "-//W3C//DTD SVG 20010904//EN"
 "http://www.w3.org/TR/2001/REC-SVG-20010904/DTD/svg10.dtd">
<svg version="1.0" xmlns="http://www.w3.org/2000/svg"
 width="1024.000000pt" height="1024.000000pt" viewBox="0 0 1024.000000 1024.000000"
 preserveAspectRatio="xMidYMid meet">

<g transform="translate(0.000000,1024.000000) scale(0.100000,-0.100000)"
fill="#000000" stroke="none">
<path d="M4850 8994 c-322 -27 -495 -53 -708 -105 -328 -80 -678 -218 -957
-378 -1078 -616 -1774 -1670 -1915 -2901 -18 -158 -24 -511 -11 -680 65 -853
388 -1618 952 -2255 1054 -1190 2749 -1593 4234 -1008 1134 447 1995 1430
2288 2613 127 511 146 1057 56 1580 -106 611 -378 1214 -767 1702 -634 794
-1550 1302 -2552 1413 -138 15 -524 27 -620 19z m1000 -1265 c351 -42 677
-205 946 -473 254 -255 405 -547 465 -899 28 -162 23 -448 -11 -602 -210 -972
-1187 -1543 -2130 -1243 -52 17 -145 54 -206 82 l-110 53 -775 -949 c-613
-753 -783 -955 -819 -976 -56 -33 -145 -37 -200 -8 -63 33 -161 120 -188 166
-34 57 -37 145 -7 202 11 20 128 168 259 330 132 161 477 584 768 940 290 356
528 650 528 653 0 4 -18 27 -39 53 -58 71 -133 187 -180 279 -235 469 -241
1001 -16 1468 226 468 650 799 1162 906 176 37 346 42 553 18z"/>
<path d="M5476 7289 c-410 -57 -761 -309 -936 -674 -57 -119 -85 -207 -105
-329 -72 -444 107 -893 463 -1161 415 -312 972 -328 1402 -40 429 287 628 816
494 1316 -52 197 -146 364 -285 513 -173 183 -382 302 -629 357 -101 22 -307
32 -404 18z"/>
</g>
</svg>
